<?xml version="1.0" encoding="UTF-8"?>
<svg xmlns="http://www.w3.org/2000/svg" xmlns:xlink="http://www.w3.org/1999/xlink" width="154px" height="161px" viewBox="0 0 154 161" version="1.1">
<g id="surface1">
<path style=" stroke:none;fill-rule:nonzero;fill:rgb(0%,0%,0%);fill-opacity:1;" d="M 73.921875 21.816406 C 63.816406 22.460938 54.339844 25.761719 46.046875 31.515625 C 41.78125 34.476562 37.914062 38.027344 34.605469 42.019531 C 26.980469 51.222656 22.328125 62.46875 21.144531 74.542969 C 20.71875 78.792969 20.796875 83.847656 21.328125 88.132812 C 22.578125 98.082031 26.25 107.515625 32.015625 115.589844 C 33.765625 118.046875 35.414062 120 37.667969 122.328125 C 41.566406 126.34375 45.5625 129.445312 50.496094 132.261719 C 51.058594 132.582031 51.527344 132.832031 51.542969 132.816406 C 51.550781 132.800781 51.542969 130.097656 51.527344 126.8125 L 51.496094 120.839844 L 50.941406 120.460938 C 47.230469 117.882812 42.835938 113.527344 40 109.601562 C 30.914062 97.042969 28.273438 80.492188 32.957031 65.488281 C 35.164062 58.425781 38.894531 52.003906 43.851562 46.699219 C 47.59375 42.695312 51.472656 39.71875 56.171875 37.230469 C 61.808594 34.246094 67.699219 32.554688 74.019531 32.113281 C 75.777344 31.992188 80.066406 32.0625 81.660156 32.242188 C 91.5 33.335938 100.070312 37.214844 107.515625 43.9375 L 108.261719 44.613281 L 108.410156 44.429688 C 108.492188 44.324219 109.871094 42.527344 111.488281 40.453125 C 113.097656 38.367188 114.414062 36.644531 114.398438 36.613281 C 114.367188 36.523438 112.503906 34.878906 111.558594 34.117188 C 102.78125 27 92.769531 22.917969 81.679688 21.9375 C 80.011719 21.785156 75.5 21.71875 73.921875 21.816406 Z M 73.921875 21.816406 "/>
<path style=" stroke:none;fill-rule:nonzero;fill:rgb(0%,0%,0%);fill-opacity:1;" d="M 120.535156 45.492188 C 119.90625 46.304688 113.90625 54.046875 107.199219 62.710938 C 100.492188 71.363281 94.980469 78.445312 94.941406 78.445312 C 94.886719 78.445312 75.699219 58.683594 64.550781 47.140625 L 61.601562 44.089844 L 61.617188 90.488281 L 61.636719 136.882812 L 62.679688 137.238281 C 64.027344 137.695312 65.972656 138.242188 67.375 138.546875 C 68.652344 138.820312 70.753906 139.183594 71.125 139.183594 L 71.378906 139.183594 L 71.394531 103.933594 L 71.417969 68.675781 L 80.078125 77.609375 C 84.847656 82.527344 90.320312 88.179688 92.253906 90.167969 L 95.773438 93.78125 L 107.882812 78.132812 C 114.554688 69.519531 120.035156 62.484375 120.074219 62.492188 C 120.242188 62.546875 121.492188 66.453125 121.992188 68.546875 C 123.546875 74.976562 123.832031 81.449219 122.851562 88.066406 C 122.175781 92.679688 120.820312 97.171875 118.734375 101.726562 L 118.171875 102.960938 L 119.890625 105.1875 C 120.835938 106.421875 122.320312 108.34375 123.183594 109.472656 L 124.761719 111.507812 L 124.992188 111.121094 C 127.003906 107.757812 128.992188 103.3125 130.292969 99.28125 C 131.761719 94.722656 132.609375 90.480469 133.070312 85.289062 C 133.226562 83.519531 133.203125 77.070312 133.03125 75.226562 C 132.308594 67.484375 130.382812 60.503906 127.128906 53.8125 C 126.28125 52.074219 125.679688 50.988281 123.332031 46.90625 L 121.675781 44.015625 Z M 120.535156 45.492188 "/>
<path style=" stroke:none;fill-rule:nonzero;fill:rgb(0%,0%,0%);fill-opacity:1;" d="M 111.804688 112.554688 C 111.527344 112.878906 110.789062 113.699219 110.148438 114.382812 C 102.765625 122.28125 93.054688 127.3125 82.691406 128.605469 L 81.558594 128.75 L 81.503906 133.847656 C 81.472656 136.65625 81.464844 138.976562 81.496094 139 C 81.628906 139.136719 85.648438 138.597656 87.894531 138.136719 C 97.921875 136.078125 107.105469 131.246094 114.808594 123.976562 C 115.292969 123.519531 116.339844 122.449219 117.132812 121.613281 L 118.578125 120.082031 L 118.324219 119.75 C 118.1875 119.566406 116.808594 117.789062 115.269531 115.800781 C 113.738281 113.804688 112.433594 112.128906 112.382812 112.070312 C 112.3125 111.992188 112.1875 112.089844 111.804688 112.554688 Z M 111.804688 112.554688 "/>
</g>
</svg>
