<?xml version="1.0" standalone="no"?>
<!DOCTYPE svg PUBLIC "-//W3C//DTD SVG 20010904//EN"
 "http://www.w3.org/TR/2001/REC-SVG-20010904/DTD/svg10.dtd">
<svg version="1.0" xmlns="http://www.w3.org/2000/svg"
 width="2000.000000pt" height="2000.000000pt" viewBox="0 0 2000.000000 2000.000000"
 preserveAspectRatio="xMidYMid meet">

<g transform="translate(0.000000,2000.000000) scale(0.100000,-0.100000)"
fill="#000000" stroke="none">
<path d="M9600 17290 c-1312 -80 -2543 -490 -3620 -1205 -554 -368 -1056 -809
-1486 -1305 -990 -1143 -1594 -2540 -1748 -4040 -55 -528 -45 -1156 24 -1688
162 -1236 639 -2408 1388 -3411 227 -305 441 -548 734 -837 506 -499 1025
-884 1666 -1234 73 -40 134 -71 136 -69 1 2 0 338 -2 746 l-4 742 -72 47
c-482 320 -1053 861 -1421 1349 -1180 1560 -1523 3616 -915 5480 287 877 771
1675 1415 2334 486 497 990 867 1600 1176 732 371 1497 581 2318 636 228 15
785 6 992 -16 1278 -136 2391 -618 3358 -1453 l97 -84 19 23 c11 13 190 236
400 494 209 259 380 473 378 477 -4 11 -246 215 -369 310 -1140 884 -2440
1391 -3880 1513 -217 19 -803 27 -1008 15z"/>
<path d="M15654 14349 c-82 -101 -861 -1063 -1732 -2139 -871 -1075 -1587
-1955 -1592 -1955 -7 0 -2499 2455 -3947 3889 l-383 379 2 -5764 3 -5763 135
-44 c175 -57 428 -125 610 -163 166 -34 439 -79 487 -79 l33 0 2 4379 3 4380
1125 -1110 c619 -611 1330 -1313 1581 -1560 l457 -449 1573 1944 c866 1070
1578 1944 1583 1943 22 -7 184 -492 249 -752 202 -799 239 -1603 112 -2425
-88 -573 -264 -1131 -535 -1697 l-73 -153 223 -277 c123 -153 316 -392 428
-532 l205 -253 30 48 c261 418 519 970 688 1471 191 566 301 1093 361 1738 20
220 17 1021 -5 1250 -94 962 -344 1829 -767 2660 -110 216 -188 351 -493 858
l-215 359 -148 -183z"/>
<path d="M14520 6018 c-36 -40 -132 -142 -215 -227 -959 -981 -2220 -1606
-3566 -1767 l-147 -18 -7 -633 c-4 -349 -5 -637 -1 -640 17 -17 539 50 831
107 1302 256 2495 856 3495 1759 63 57 199 190 302 294 l188 190 -33 41 c-18
23 -197 244 -397 491 -199 248 -368 456 -375 463 -9 10 -25 -2 -75 -60z"/>
</g>
</svg>
